<svg width="30" height="30" viewBox="0 0 30 30" fill="none" xmlns="http://www.w3.org/2000/svg">
<path d="M20.6288 15.0407C20.6302 15.2863 20.5829 15.5298 20.4896 15.7571C20.3963 15.9845 20.2588 16.1913 20.085 16.3657L12.585 23.8301C12.4102 24.0041 12.2026 24.1421 11.9742 24.2363C11.7458 24.3304 11.501 24.3789 11.2538 24.3789C11.0065 24.3789 10.7617 24.3304 10.5333 24.2363C10.3049 24.1421 10.0973 24.0041 9.92251 23.8301C9.74769 23.6561 9.60902 23.4495 9.5144 23.2222C9.41979 22.9949 9.37109 22.7512 9.37109 22.5052C9.37109 22.2591 9.41979 22.0154 9.5144 21.7881C9.60902 21.5608 9.74769 21.3542 9.92251 21.1802L16.1288 15.0407L10.1663 8.88255C9.97447 8.71089 9.82033 8.50168 9.71348 8.26802C9.60663 8.03436 9.54938 7.78127 9.54529 7.52458C9.5412 7.26789 9.59038 7.01312 9.68973 6.77621C9.78909 6.5393 9.9365 6.32534 10.1227 6.14771C10.309 5.97008 10.53 5.83261 10.7721 5.74389C11.0141 5.65517 11.272 5.61711 11.5295 5.63209C11.787 5.64707 12.0386 5.71477 12.2686 5.83096C12.4986 5.94714 12.7021 6.10931 12.8663 6.30732L20.1038 13.7718C20.4344 14.113 20.6221 14.5667 20.6288 15.0407Z" fill="black"/>
</svg>
