<svg width="30" height="30" viewBox="0 0 30 30" fill="none" xmlns="http://www.w3.org/2000/svg">
<path d="M9.37123 15.0407C9.36981 15.2863 9.41711 15.5298 9.51041 15.7571C9.60372 15.9845 9.74121 16.1913 9.91498 16.3657L17.415 23.8301C17.5898 24.0041 17.7974 24.1421 18.0258 24.2363C18.2542 24.3304 18.499 24.3789 18.7462 24.3789C18.9935 24.3789 19.2383 24.3304 19.4667 24.2363C19.6951 24.1421 19.9027 24.0041 20.0775 23.8301C20.2523 23.6561 20.391 23.4495 20.4856 23.2222C20.5802 22.9949 20.6289 22.7512 20.6289 22.5052C20.6289 22.2591 20.5802 22.0154 20.4856 21.7881C20.391 21.5608 20.2523 21.3542 20.0775 21.1802L13.8712 15.0407L19.8337 8.88255C20.0255 8.71089 20.1797 8.50168 20.2865 8.26802C20.3934 8.03436 20.4506 7.78127 20.4547 7.52458C20.4588 7.26789 20.4096 7.01312 20.3103 6.77621C20.2109 6.5393 20.0635 6.32534 19.8773 6.14771C19.691 5.97008 19.47 5.83261 19.2279 5.74389C18.9859 5.65517 18.728 5.61711 18.4705 5.63209C18.213 5.64707 17.9614 5.71477 17.7314 5.83096C17.5014 5.94714 17.2979 6.10931 17.1337 6.30732L9.89623 13.7718C9.56564 14.113 9.37794 14.5667 9.37123 15.0407Z" fill="black"/>
</svg>
