<svg width="230" height="230" viewBox="0 0 230 230" fill="none" xmlns="http://www.w3.org/2000/svg">
<path d="M115 0C51.487 0 0 51.487 0 115C0 169.643 38.111 215.385 89.2025 227.095L227.095 89.2025C215.385 38.111 169.643 0 115 0Z" fill="#FFEDB5"/>
<path d="M230 115C230 106.13 228.994 97.4957 227.093 89.2027L183.945 46.0547L46.0549 183.945L89.2029 227.093C97.4959 228.994 106.13 230 115 230C178.513 230 230 178.512 230 115Z" fill="#FFAD9E"/>
<path d="M212.5 115L195.97 131.105L205.08 152.31L183.645 160.865L183.945 183.945L160.865 183.645L152.31 205.08L131.105 195.97L115 212.5L95 115L115 17.5L131.105 34.03L152.31 24.92L160.865 46.355L183.945 46.055L183.645 69.135L205.08 77.69L195.97 98.895L212.5 115Z" fill="#C2001B"/>
<path d="M115 17.5V212.5L98.895 195.97L77.69 205.08L69.135 183.645L46.055 183.945L46.355 160.865L24.92 152.31L34.03 131.105L17.5 115L34.03 98.895L24.92 77.69L46.355 69.135L46.055 46.055L69.135 46.355L77.69 24.92L98.895 34.03L115 17.5Z" fill="#FF0F27"/>
<path d="M198.17 115L184.075 128.74L191.84 146.83L173.555 154.125L173.81 173.81L154.125 173.555L146.83 191.84L128.74 184.075L115 198.17L100 115L115 31.8301L128.74 45.9251L146.83 38.1601L154.125 56.4451L173.81 56.1901L173.555 75.8751L191.84 83.1701L184.075 101.26L198.17 115Z" fill="#FF0F27"/>
<path d="M115 31.8301V198.17L101.26 184.075L83.1701 191.84L75.8751 173.555L56.1901 173.81L56.4451 154.125L38.1601 146.83L45.9251 128.74L31.8301 115L45.9251 101.26L38.1601 83.1701L56.4451 75.8751L56.1901 56.1901L75.8751 56.4451L83.1701 38.1601L101.26 45.9251L115 31.8301Z" fill="#FF6161"/>
<path d="M89.6746 111.175C79.1981 111.175 70.6746 102.651 70.6746 92.1748V87.1748C70.6746 76.6983 79.1981 68.1748 89.6746 68.1748C100.151 68.1748 108.675 76.6983 108.675 87.1748V92.1748C108.675 102.651 100.151 111.175 89.6746 111.175ZM89.6746 78.1748C84.7121 78.1748 80.6746 82.2123 80.6746 87.1748V92.1748C80.6746 97.1373 84.7121 101.175 89.6746 101.175C94.6371 101.175 98.6746 97.1373 98.6746 92.1748V87.1748C98.6746 82.2118 94.6366 78.1748 89.6746 78.1748Z" fill="white"/>
<path d="M140.325 161.825C129.849 161.825 121.325 153.302 121.325 142.825V137.825C121.325 127.349 129.849 118.825 140.325 118.825C150.802 118.825 159.325 127.349 159.325 137.825V142.825C159.325 153.302 150.802 161.825 140.325 161.825ZM140.325 128.825C135.363 128.825 131.325 132.863 131.325 137.825V142.825C131.325 147.788 135.363 151.825 140.325 151.825C145.288 151.825 149.325 147.788 149.325 142.825V137.825C149.325 132.863 145.288 128.825 140.325 128.825Z" fill="white"/>
<path d="M82.7472 140.182L89.8186 147.253L147.253 89.8187L140.181 82.7474L82.7472 140.182Z" fill="white"/>
</svg>
