<svg width="230" height="230" viewBox="0 0 230 230" fill="none" xmlns="http://www.w3.org/2000/svg">
<path d="M115 222.812C174.543 222.812 222.812 174.543 222.812 115C222.812 55.4568 174.543 7.1875 115 7.1875C55.4568 7.1875 7.1875 55.4568 7.1875 115C7.1875 174.543 55.4568 222.812 115 222.812Z" fill="#00ADFE"/>
<path opacity="0.3" d="M115 201.25C162.635 201.25 201.25 162.635 201.25 115C201.25 67.3654 162.635 28.75 115 28.75C67.3654 28.75 28.75 67.3654 28.75 115C28.75 162.635 67.3654 201.25 115 201.25Z" fill="#356CB6"/>
<path d="M115 222.812C142.833 222.843 169.591 212.072 189.642 192.769C187.845 152.465 182.562 93.06 166.912 57.6795C158.233 38.0576 137.892 24.9404 115 24.9404C92.1078 24.9404 70.707 37.5185 63.0883 57.6795C49.5578 93.3115 43.7539 153.327 41.3281 193.631C61.2651 212.398 87.6198 222.837 115 222.812Z" fill="#393C54"/>
<path d="M151.171 64.9209C144.846 49.6834 132.34 41.885 115.701 41.5615H114.299C97.6602 41.9568 85.154 49.7553 78.829 64.9209C72.3063 80.5717 70.15 104.039 78.829 135.34C87.2563 165.887 97.768 172.158 114.299 172.482H115.701C132.232 172.158 142.654 165.797 151.171 135.34C159.922 104.039 157.694 80.5717 151.171 64.9209Z" fill="white"/>
<path d="M139.402 94.9287H147.326" stroke="#393C54" stroke-width="34.4375" stroke-miterlimit="10" stroke-linecap="round"/>
<path d="M123.086 158.125C117.724 158.915 112.276 158.915 106.914 158.125C104.668 157.532 102.422 156.112 102.422 153.632C102.422 151.153 104.578 149.805 106.914 149.14C112.237 147.936 117.763 147.936 123.086 149.14C125.26 149.697 127.578 151.153 127.578 153.632C127.578 156.112 125.296 157.55 123.086 158.125Z" fill="#393C54"/>
<path d="M147.434 104.417C144.011 105.216 140.429 104.985 137.137 103.752" stroke="#393C54" stroke-width="13.8125" stroke-miterlimit="10" stroke-linecap="round"/>
<path d="M135.52 116.797C135.681 115.341 136.373 113.996 137.464 113.019C138.555 112.042 139.968 111.502 141.432 111.502C142.896 111.502 144.309 112.042 145.4 113.019C146.491 113.996 147.183 115.341 147.344 116.797C147.344 120.085 141.396 142.546 137.443 142.546C135.52 142.474 135.52 120.013 135.52 116.797Z" fill="#A7AECE"/>
<path d="M135.43 80.8592C135.43 82.439 136.058 83.9541 137.175 85.0712C138.292 86.1882 139.807 86.8158 141.387 86.8158C142.967 86.8158 144.482 86.1882 145.599 85.0712C146.716 83.9541 147.344 82.439 147.344 80.8592C147.344 77.5889 142.69 63.0342 139.419 63.0342C136.149 63.0342 135.43 77.6068 135.43 80.8592Z" fill="#A7AECE"/>
<path d="M82.6742 94.9287H90.5984" stroke="#393C54" stroke-width="34.4375" stroke-miterlimit="10" stroke-linecap="round"/>
<path d="M92.8625 103.787C89.4562 105.028 85.7543 105.21 82.2429 104.308" stroke="#393C54" stroke-width="13.8125" stroke-miterlimit="10" stroke-linecap="round"/>
<path d="M94.5695 80.8592C94.5695 82.439 93.942 83.9541 92.8249 85.0712C91.7078 86.1882 90.1927 86.8158 88.6129 86.8158C87.0331 86.8158 85.518 86.1882 84.4009 85.0712C83.2838 83.9541 82.6563 82.439 82.6562 80.8592C82.6562 77.5889 87.3102 63.0342 90.5805 63.0342C93.8508 63.0342 94.5695 77.6068 94.5695 80.8592Z" fill="#A7AECE"/>
<path d="M94.4797 116.797C94.319 115.341 93.6269 113.996 92.5361 113.019C91.4453 112.042 90.0323 111.502 88.568 111.502C87.1036 111.502 85.6907 112.042 84.5999 113.019C83.509 113.996 82.817 115.341 82.6562 116.797C82.6562 120.085 88.6039 142.546 92.557 142.546C94.4797 142.474 94.4797 120.013 94.4797 116.797Z" fill="#A7AECE"/>
<path d="M122.924 162.294C122.924 164.486 119.33 166.265 115 166.265C110.67 166.265 107.076 164.468 107.076 162.294C107.076 161.18 110.67 161.809 115 161.809C119.33 161.809 122.924 161.18 122.924 162.294Z" fill="#A7AECE"/>
<path opacity="0.2" d="M151.171 64.9215C149.307 60.2897 146.575 56.0569 143.121 52.4512C145.727 70.9949 144.253 94.9293 140.677 127.668C136.922 161.989 120.139 169.536 102.943 170.793C106.638 171.933 110.486 172.503 114.353 172.482H115.755C132.286 172.159 142.708 165.798 151.225 135.341C159.922 104.039 157.694 80.5723 151.171 64.9215Z" fill="#393C54"/>
</svg>
