<svg width="573" height="483" viewBox="0 0 573 483" fill="none" xmlns="http://www.w3.org/2000/svg">
<g clip-path="url(#clip0_792_5909)">
<path d="M240.049 21.3528C274.296 6.87568 311.988 0.955641 349.052 3.49533C385.336 6.22084 421.009 17.1937 452.352 35.7148C480.444 52.2538 505.117 74.5712 524.362 100.879C546.831 131.515 561.825 167.61 567.492 205.184C571.841 234.97 570.955 265.658 563.825 294.947C568.466 304.017 570.786 314.461 569.219 324.602C567.43 339.867 557.635 353.829 543.998 360.901C540.888 363.034 536.283 363.069 534.166 366.458C509.324 406.224 472.606 438.56 429.786 457.789C420.85 461.957 411.543 465.258 402.2 468.373L400.261 468.798C355.255 482.602 306.128 482.116 261.183 468.249C227.539 457.604 196.195 439.64 170.318 415.632C145.539 392.811 125.647 364.715 112.46 333.717C106.579 320.115 102.319 305.886 98.8475 291.515C92.6481 287.73 85.1743 286.648 78.0353 287.473C63.2905 288.995 49.3419 294.32 35.0736 297.966C45.2405 290.48 56.3286 284.25 67.824 279.056C49.5624 279.296 31.655 283.586 13.9425 287.694C9.19557 288.871 4.44772 290.083 -0.246094 291.436C17.9889 271.943 41.9806 258.75 66.7161 249.315C58.2575 248.235 49.6855 247.234 41.6077 244.342C34.0356 241.811 26.9772 237.891 20.6361 233.059C26.7469 232.873 32.8843 233.262 38.9774 232.555C57.7881 232.687 77.5376 231.67 94.3113 222.228C97.3924 181.478 111.421 141.613 134.447 107.853C160.307 69.6511 197.433 39.1217 240.049 21.3528Z" fill="black"/>
<path d="M305.558 11.9994C335.731 8.90225 366.577 10.9464 395.732 19.5742C457.398 37.1308 510.642 81.7656 538.77 139.32C552.674 167.212 560.77 198.015 562.194 229.147C561.992 235.658 563.17 242.155 562.31 248.65C562.115 261.471 560.388 274.207 558.023 286.797C556.322 285.194 554.568 283.648 552.763 282.162C555.358 265.543 557.246 248.666 556.164 231.837C555.933 227.437 555.792 223.041 555.358 218.659C551.834 183.724 540.028 149.627 520.916 120.142C501.688 90.2067 475.253 64.9249 444.486 47.0409C412.603 28.4932 376.081 17.7593 339.167 16.8832C334.73 16.2284 330.231 16.7063 325.768 16.5558L325.174 16.9894C286.428 17.5381 248.08 29.4224 215.046 49.5009C182.667 69.3052 155.381 97.3745 136.624 130.364C122.153 155.557 112.801 183.634 109.073 212.429C107.327 214.553 104.741 215.739 102.439 217.146C106.646 174.238 123.73 132.797 150.387 98.9399C178.214 63.4639 216.623 36.3326 259.47 22.1927C274.438 17.2469 289.909 13.8489 305.558 11.9994Z" fill="#F9FCFA"/>
<path d="M315.726 30.5469C320.304 28.2373 326.68 27.8922 330.489 31.8123C333.092 34.1573 333.508 37.8474 334.377 41.0507C331.888 41.2631 329.391 41.4047 326.903 41.3782C326.053 39.803 326.018 37.2987 324.052 36.6439C322.466 36.2368 320.837 36.6881 319.26 36.8651C319.135 38.1925 319.065 39.5199 319.03 40.8561C323.528 42.5108 328.576 43.4488 332.102 46.9619C336.043 50.6785 335.734 57.0322 333.376 61.5275C329.86 68.1289 320.002 69.0395 314.512 64.492C311.58 61.7222 311.024 57.5808 310.421 53.8111C313.096 53.8111 315.77 53.8111 318.446 53.7846C319.03 55.404 319.26 57.2269 320.367 58.625C321.456 60.2621 323.564 59.625 325.22 59.7135C326.388 57.6605 327.045 55.2349 326.273 52.9262C323.696 50.5016 319.862 50.537 316.823 48.953C309.809 45.8912 309.065 34.3785 315.726 30.5469Z" fill="#FCFDFC"/>
<path d="M350.849 30.9277C355.233 30.0428 360.706 30.1755 363.938 33.7682C366.604 36.4761 366.941 40.5112 366.905 44.104C364.595 44.042 362.291 43.8473 360.007 43.5642C359.253 41.9182 358.803 40.1661 358.12 38.4936C356.605 38.2724 354.799 37.0335 353.416 38.1662C351.626 38.9892 351.398 41.7767 353.311 42.5908C357.065 44.5818 361.336 46.1216 363.957 49.67C367.287 53.7937 366.303 59.9704 363.488 64.094C358.963 70.4919 347.945 70.1565 343.632 63.741C341.63 60.7756 341.771 57.0245 341.649 53.6176C344.279 53.9362 346.909 54.299 349.558 54.4406C350.027 56.467 349.824 58.874 351.4 60.4491C352.304 60.9809 353.348 61.2022 354.349 61.4942C354.862 61.211 355.872 60.6535 356.377 60.3695C357.465 58.4404 357.696 56.2458 357.298 54.0866C353.746 51.8389 349.388 50.7417 346.43 47.6622C342.268 42.4757 344.084 32.9807 350.849 30.9277ZM279.831 36.423C283.091 33.8479 287.581 33.2196 291.547 34.2461C296.188 35.892 299.297 40.4227 299.942 45.2101C297.339 45.8738 294.725 46.5198 292.078 46.9091C291.67 45.626 291.272 44.3429 290.874 43.0686C289.475 42.7501 288.085 42.4403 286.686 42.1306C285.296 43.0952 283.516 43.8739 283.144 45.7145C283.958 50.6257 285.003 55.5016 286.154 60.3332C286.783 63.6073 291.397 64.6613 293.592 62.2888C295.081 60.9969 294.522 58.8032 294.824 57.0856C297.224 56.3334 299.66 55.5812 302.166 55.245C303.857 57.5634 303.716 60.7491 303.033 63.4127C301.297 68.0761 296.452 70.6158 291.892 71.7839C285.869 72.6246 279.069 68.5363 278.129 62.28C277.066 56.8112 275.941 51.3514 275.011 45.8649C274.252 42.0067 276.926 38.5998 279.831 36.423ZM403.81 55.0503C405.776 50.9355 409.522 46.8649 414.463 47.0773C421.318 47.1215 429.076 52.7584 427.925 60.2801C426.933 65.4568 423.93 69.9344 422.062 74.8103C419.937 79.2348 418.388 83.9602 415.836 88.1724C413.419 87.5441 411.232 86.3061 408.964 85.3062C409.531 81.9258 411.399 79.0056 412.673 75.8819C414.763 70.9353 417.146 66.1125 419.121 61.1216C419.936 59.458 418.881 57.8563 418.35 56.3077C416.243 55.998 413.319 55.2812 412.186 57.7059C408.599 65.5727 405.207 73.528 401.613 81.386C398.681 81.094 396.059 79.6605 393.562 78.2181C396.919 70.4733 400.435 62.7932 403.81 55.0503Z" fill="#FBFDFA"/>
<path d="M215.543 63.5628C217.846 62.1815 220.122 60.7311 222.539 59.5542C227.95 68.1024 232.617 77.1108 237.949 85.713C241.952 83.4556 245.84 81.0132 249.923 78.9346C251.286 81.1822 252.579 83.4653 253.776 85.8015C247.345 89.2615 241.129 93.102 234.744 96.6602C228.323 85.6316 222.071 74.518 215.543 63.5628Z" fill="#FAFDFA"/>
<path d="M438.358 66.2973C444.106 62.4745 452.91 64.6956 456.132 70.7927C457.098 72.4032 457.558 74.2438 458.179 76.0136C458.002 78.5002 457.665 81.1195 456.106 83.1725C452.75 87.8094 449.632 92.6233 446.116 97.1355C443.54 100.357 438.987 101.038 435.152 100.163C427.997 98.8088 422.709 90.5606 425.613 83.6318C427.455 80.3045 429.917 77.3578 431.98 74.1633C434.001 71.4652 435.603 68.3415 438.358 66.2973Z" fill="#FBFDFA"/>
<path d="M440.297 75.2339C441.253 73.6676 442.918 72.8544 444.549 72.1367C445.896 72.7305 447.241 73.3402 448.57 73.9959C449.287 75.9958 450.199 78.3665 448.781 80.3053C446.682 83.5264 444.459 86.6678 442.193 89.765C440.094 92.3224 436.276 92.4551 433.761 90.4464C433.408 89.4553 433.052 88.4819 432.698 87.4996C434.373 82.9335 437.64 79.2346 440.297 75.2339Z" fill="#010101"/>
<path d="M194.057 79.765C198.45 75.19 206.819 74.1989 211.408 79.0216C217.491 85.6142 223.761 92.0563 229.687 98.817C227.756 100.596 225.888 102.445 223.957 104.215C217.625 98.1976 212.187 91.3139 205.89 85.27C204.571 83.8621 202.525 84.4559 200.833 84.4028C199.744 86.0752 198.539 88.4388 200.098 90.2343C205.704 96.5791 211.585 102.694 217.439 108.817C217.412 109.357 217.394 109.906 217.377 110.455C215.384 112.048 213.587 113.862 211.7 115.579C206.422 109.738 200.878 104.136 195.662 98.2427C194.201 96.7561 192.607 94.6774 190.233 95.3491C187.798 96.0305 186.301 99.3312 188.356 101.251C194.174 107.764 200.214 114.083 206.228 120.427C204.447 122.587 202.304 124.392 200.17 126.198C194.139 119.942 188.311 113.482 182.316 107.198C178.827 103.871 178.215 98.4197 180.12 94.1102C181.66 89.5972 186.31 87.0053 190.915 86.792C191.578 84.3045 192.206 81.6772 194.057 79.765Z" fill="#FBFDFB"/>
<path d="M264.598 92.5877C295.932 78.2168 331.905 74.3852 365.604 81.5706C398.151 88.3676 428.342 105.588 451.013 129.843C463.403 143.178 473.606 158.513 481.07 175.114C486.118 186.954 490.228 199.283 492.282 212.024C475.34 208.705 458.61 204.201 442.341 198.405C434.618 195.618 426.967 192.538 419.749 188.609C418.606 188.016 417.588 187.238 416.799 186.238C413.532 182.362 410.264 178.503 406.987 174.645C406.162 173.132 404.391 173.706 403.02 173.635C402.726 172.065 402.481 170.486 402.285 168.9C399.07 165.626 399.14 160.972 398.99 156.698C397.661 143.734 398.3 130.407 394.473 117.797C389.451 106.629 379.16 97.5945 366.912 95.4708C358.259 94.1177 349.306 94.7894 340.892 97.1963C325.252 101.577 310.957 109.639 297.399 118.408C285.152 126.452 273.514 135.398 262.25 144.752C248.32 145.522 235.442 151.424 223.202 157.663C215.179 161.565 207.173 165.884 198.361 167.724C193.977 168.282 189.566 168.618 185.253 169.661C201.736 135.833 230.28 108.082 264.598 92.5877Z" fill="white"/>
<path d="M466.68 84.9512C468.176 83.4469 469.478 81.2789 471.897 81.4293C475.803 86.1813 482.072 89.305 483.728 95.6144C484.296 99.0576 483.542 102.906 481.071 105.481C477.458 109.543 473.755 113.534 469.921 117.392C466.857 120.613 461.844 120.878 457.84 119.595C452.802 116.879 448.94 112.498 444.777 108.649C451.872 100.56 459.506 92.9676 466.68 84.9512Z" fill="#FBFDFB"/>
<path d="M471.285 92.7651C473.553 94.1279 475.411 96.1632 475.546 98.9506C471.525 103.296 467.513 107.658 463.413 111.932C462.145 111.906 460.871 111.888 459.613 111.861C458.542 110.817 457.46 109.773 456.389 108.746C461.434 103.494 466.4 98.1668 471.285 92.7651Z" fill="#010001"/>
<path d="M318.931 122.109C331.268 115.02 344.393 108.322 358.723 106.684C367.809 105.462 378.046 108.144 383.723 115.754C388.354 120.817 388.87 127.975 389.498 134.47C390.313 140.992 389.95 147.602 390.959 154.115C388.417 154.601 385.902 155.327 383.316 155.531C381.987 154.902 380.668 154.293 379.498 153.416C379.046 151.646 378.772 149.841 378.497 148.035C368.056 149.973 357.046 152.133 348.501 158.857C344.205 162.131 341.663 167.194 340.777 172.449C340.769 174.033 340.733 175.626 340.848 177.228C342.293 178.429 344.365 178.113 346.108 178.544C343.673 183.015 341.494 187.696 340.83 192.793V196.333C344.912 195.696 348.384 193.36 352.202 191.953C352.035 192.864 351.705 194.687 351.547 195.598C351.467 196.837 351.396 198.076 351.335 199.315C352.131 201.276 353.094 203.164 354.213 204.961C359.713 203.764 364.468 200.589 369.721 198.711L369.117 201.756C369.33 202.357 369.747 203.552 369.949 204.145C375.607 202.764 380.957 200.339 385.723 196.995C391.932 193.013 397.962 187.783 405.518 186.8C409.734 189.454 411.698 194.941 416.155 197.5C423.399 201.87 431.264 205.091 439.146 208.119C455.334 214.127 471.994 218.869 488.891 222.417C497.677 224.338 506.629 225.647 515.149 228.603C519.914 230.328 524.715 233.24 526.823 238.062C530.789 247.54 530.737 258.752 526.062 267.964C521.874 275.68 514.397 281.98 505.647 283.66C470.611 291.757 435.009 297.201 399.391 301.933C388.808 303.101 378.251 304.376 367.64 305.27C343.18 307.457 318.62 308.685 294.044 308.386C285.993 308.501 277.872 308.315 270.008 306.449C266.927 305.282 263.763 303.97 261.54 301.441C258.495 298.485 257.645 294.185 256.864 290.194C255.562 282.867 253.819 275.575 253.57 268.106C253.295 261.61 255.501 255.407 256.731 249.106C260.549 230.099 263.541 210.905 268.404 192.109C269.05 189.808 268.687 187.375 269.325 185.076C271.885 174.386 274.905 163.82 277.668 153.183C277.995 152.271 278.119 151.173 278.89 150.528C291.637 140.249 304.814 130.435 318.931 122.109Z" fill="white"/>
<path d="M465.785 129.586C476.12 122.117 486.42 114.604 496.772 107.162C500.465 112.481 504.371 117.649 508.126 122.923C505.992 124.427 503.98 126.126 501.67 127.347C499.137 124.48 497.02 121.268 494.806 118.152C493.159 119.303 491.494 120.426 489.829 121.541C489.926 124.125 492.062 125.886 493.282 128.011C491.325 129.47 489.341 130.913 487.304 132.267C485.95 130.383 484.647 128.462 483.124 126.719C481.362 127.745 479.713 128.94 478.049 130.098L476.881 131.551C479.131 134.586 481.38 137.62 483.498 140.762C481.399 142.355 479.246 143.869 477.023 145.283C473.348 140.001 469.195 135.046 465.785 129.586Z" fill="#FBFDFB"/>
<path d="M163.76 111.375C164.593 110.25 165.275 108.959 166.436 108.136C168.746 109.162 170.588 110.985 172.635 112.454C171.023 114.693 169.367 116.887 167.879 119.224C176.053 125.072 184.122 131.064 192.314 136.877C191.1 139.178 189.497 141.23 187.93 143.292C179.596 137.399 171.431 131.275 163.088 125.399C161.671 127.497 160.325 129.656 158.695 131.594C156.1 131.461 154.294 128.913 152.124 127.682C155.658 122.011 159.987 116.887 163.76 111.375Z" fill="#FCFDFA"/>
<path d="M143.002 144.559C144.392 141.859 145.792 139.16 147.483 136.639C158.422 142.585 169.643 148.088 180.402 154.346C180.535 157.337 178.002 160.009 176.594 162.585C172.068 160.426 167.924 157.452 163.194 155.771C162.495 157.31 161.777 158.859 161.078 160.417C165.346 162.966 170.075 164.735 174.122 167.673C172.82 170.309 171.394 172.886 170.013 175.477C158.792 169.84 147.792 163.752 136.687 157.921C136.27 156.239 137.723 154.691 138.316 153.178C139.104 152.071 139.423 150.32 140.814 149.834C145.313 151.842 149.474 154.55 153.973 156.585C154.806 155.037 155.656 153.497 156.559 151.984C152.061 149.47 147.457 147.143 143.002 144.559Z" fill="#FCFEFB"/>
<path d="M480.975 148.771C481.976 146.045 485.358 145.876 487.511 147.302C488.45 149.231 488.528 151.275 487.457 153.169C486.376 153.593 485.305 154.018 484.232 154.461C482.258 153.354 479.345 151.363 480.975 148.771Z" fill="#F6FCF8"/>
<path d="M350.335 166.566C358.466 159.576 368.703 156.036 378.772 152.885L379.498 153.417C380.666 154.293 381.987 154.903 383.316 155.532C372.129 159.947 361.351 165.327 350.316 170.088C350.3 168.903 350.309 167.742 350.335 166.566Z" fill="#F8FBF9"/>
<path d="M490.361 160.859C491.84 157.372 495.197 155.248 498.535 153.788C499.677 156.416 500.881 159.018 502.006 161.664C499.713 162.894 497.569 164.707 498.065 167.575C499.394 167.911 500.784 169.079 502.192 168.363C510.579 164.991 518.595 160.77 526.884 157.177C528.08 159.956 529.434 162.654 530.551 165.469C524.519 168.38 518.383 171.079 512.351 173.991C508.189 175.663 503.866 178.15 499.226 177.274C492.106 176.088 487.245 167.46 490.361 160.859Z" fill="#FCFDFB"/>
<path d="M205.535 179.291C226.72 175.026 243.821 159.053 265.581 156.814C263.065 167.088 260.02 177.229 257.549 187.521C256.805 190.742 256.929 194.113 255.928 197.281C250.269 219.236 247.426 241.792 242.156 263.835C240.731 270.453 241.528 277.295 242.785 283.877C243.414 288.276 244.344 292.664 246.062 296.787C238.809 297.099 231.688 299.568 225.516 303.329C218.475 307.47 213.188 314.742 204.695 316.105C194.057 316.875 184.918 310.043 174.512 309.257C170.739 309.238 167.224 311.123 163.423 310.973C164.114 310.459 164.806 309.964 165.506 309.468C170.828 306.683 176.123 303.46 182.191 302.592C189.594 301.752 197.043 301.23 204.393 300.009C208.413 299.283 212.116 297.389 215.18 294.708C219.219 291.31 225.852 290.575 227.694 284.983C228.083 281.001 227.251 274.576 222.265 274.047C218.014 274.656 214.516 277.496 211.239 280.073C205.784 284.365 200.86 289.365 194.97 293.09C192.322 294.915 188.975 294.382 185.947 294.427C181.465 294.356 177.206 292.666 172.759 292.329C166.037 293.039 159.616 295.331 153.249 297.488C148.369 298.993 143.383 300.64 138.211 300.383C131.188 300.179 124.493 297.622 118.285 294.498C122.554 294.357 126.867 294.738 131.109 294.038C145.465 291.976 158.457 285.021 172.441 281.579C176.904 280.269 181.713 281.614 186.106 279.905C192.704 277.622 198.921 272.108 199.824 264.887C200.276 262.091 199.169 259.489 197.867 257.109C193.9 253.508 188.382 255.686 184.307 257.898C172.546 264.553 162.885 274.287 151.212 281.072C148.051 282.869 144.437 283.931 140.78 283.782C132.96 283.57 125.467 281.081 117.779 279.888C110.685 278.57 103.45 278.826 96.2771 279.11C109.783 272.579 125.184 273.26 139.646 270.614C144.942 269.597 150.716 268.898 155.047 265.42C156.765 264.181 156.827 261.898 157.12 260.004C155.304 254.916 151.097 250.067 145.324 249.952C136.37 250.228 128.931 255.89 121.731 260.571C116.754 263.783 111.722 268.42 105.337 267.669C98.7922 266.784 92.3989 264.625 85.7293 264.712L85.1536 264.332C78.7328 264.217 72.3218 264.899 66.0161 266.075C71.3299 262.757 76.6968 259.298 82.789 257.598C89.9891 255.501 97.6144 256.341 104.93 255.014C117.126 251.564 124.989 240.689 135.891 234.893C139.151 233.309 142.852 231.99 146.51 232.795C155.711 234.282 161.176 243.253 169.988 245.671C177.852 247.6 186.08 244.618 192.438 240.007C195.892 237.609 198.718 234.167 199.656 229.999C198.071 225.592 192.562 224.734 188.48 225.113C181.635 225.724 177.613 231.99 171.839 234.883C163.23 233.938 156.943 227.388 149.044 224.611C143.96 223.328 138.062 223.947 133.943 227.432C127.381 232.706 120.499 237.998 112.271 240.378C102.716 243.475 92.3989 241.937 83.0644 238.805C92.824 237.814 102.725 235.732 111.183 230.539C121.554 224.363 129.268 213.388 141.702 211.036C148.618 209.24 155.455 212.337 161.397 215.611C165.152 217.486 169.236 219.708 173.575 218.884C180.12 217.397 184.866 212.344 190.384 208.911C192.996 207.221 196.529 207.07 198.514 204.442C200.179 203.06 199.621 200.787 199.762 198.902C198.062 197.016 195.751 195.529 193.102 196.044C184.493 196.788 179.401 205.168 171.386 207.451C168.34 208.106 165.444 206.707 162.601 205.822C157.88 204.185 152.939 202.973 147.899 203.203C143.285 202.973 138.901 204.566 134.419 205.354C136.528 203.488 138.608 201.488 141.257 200.398C147.545 197.549 154.666 198.77 161.263 197.31C167.277 195.832 171.881 191.478 177.028 188.32C182.403 184.664 188.47 181.994 194.872 180.763C198.37 179.91 202.019 180.105 205.535 179.291Z" fill="white"/>
<path d="M356.198 178.973C363.646 173.681 370.811 167.655 379.356 164.177C377.426 166.363 375.247 168.302 372.945 170.061C364.16 176.859 355.251 183.485 346.128 189.821C347.953 185.069 352.524 182.212 356.198 178.973Z" fill="#EEFAF9"/>
<path d="M386.983 172.664C389.515 171.779 392.251 171.531 394.883 172.15C395.085 176.938 390.49 179.734 387.435 182.681C377.888 190.291 366.773 195.616 355.517 200.182C356.181 195.501 357.776 191.041 359.448 186.652C368.304 181.415 377.16 175.928 386.983 172.664Z" fill="#FDFDFC"/>
<path d="M517.834 184.787C519.773 181.192 524.015 179.787 527.833 179.362C535.219 179.467 539.399 188.176 537.699 194.608C536.547 199.006 532.27 201.236 528.374 202.785C527.7 200.387 527.09 197.971 526.471 195.564C527.808 194.439 530.323 193.954 530.314 191.839C530.359 190.564 530.093 189.317 529.961 188.059C528.712 187.679 527.455 187.335 526.197 187.059L525.001 189.131C524.815 194.351 524.478 200.343 520.29 204.078C517.225 207.193 512.451 207.113 508.44 206.52C501.461 204.662 498.246 195.981 500.771 189.61C502.568 185.725 506.695 183.893 510.494 182.506C511.283 185.081 511.938 187.689 512.558 190.309C510.565 191.547 507.077 192.496 507.633 195.522C507.305 197.115 508.89 197.859 509.802 198.85C511.813 198.637 514.425 198.947 515.639 196.913C516.682 192.937 516.044 188.573 517.834 184.787Z" fill="#FBFEFB"/>
<path d="M297.322 223.784C299.697 215.981 307.375 211.414 315.124 210.457C321.305 210.085 328.02 211.05 332.908 215.156C336.264 217.731 337.547 221.943 338.709 225.83C340.605 225.83 342.508 225.874 344.411 226.007C344.73 221.007 349.016 217.228 353.463 215.598C356.216 214.475 358.838 216.041 361.247 217.218C363.294 216.227 365.108 214.342 367.579 214.689C369.697 214.449 371.821 216.483 373.832 215.29C376.816 213.636 380.677 213.122 383.664 215.06C386.789 216.519 387.852 220.069 388.667 223.14C394.937 220.954 402.455 220.494 407.99 224.777C409.611 224.06 411.215 223.299 412.817 222.529C413.978 217.175 419.866 213.662 425.126 215.043C430.944 216.29 434.708 223.626 430.927 228.714C431.831 231.812 432.079 235.121 430.892 238.192C433.231 240.51 435.772 243.315 435.223 246.89C435.657 251.731 432.069 255.58 428.369 258.129C430.743 261.739 429.281 266.066 430.653 269.934C431.549 273.65 430.857 277.942 427.865 280.571C423.754 284.961 417.237 284.313 411.808 285.306C410.816 284.669 409.825 284.032 408.833 283.421C403.307 286.021 396.479 286.5 391.395 282.632C389.399 284.517 386.982 285.9 384.346 286.669C381.645 290.375 378.085 294.084 373.373 294.907C368.82 295.068 365.649 290.97 364.834 286.848C360.265 288.281 355.554 287.635 351.107 286.103C347.219 289.219 341.818 289.589 337.204 288.041C335.229 291.89 332.448 295.421 328.479 297.359C320.012 301.588 308.376 300.173 302.3 292.5C297.226 286.244 298.057 276.457 304.035 271.068C303.15 269.13 302.467 267.112 302.097 265.024C300.9 264.67 299.715 264.306 298.536 263.962C297.402 264.555 296.268 265.148 295.144 265.751C289.147 265.769 283.081 265.158 277.21 266.716C275.554 265.529 273.578 264.628 272.489 262.84C271.462 261.008 271.675 258.858 271.622 256.848C263.953 254.601 261.463 243.893 266.787 238.212C270.082 234.663 275.191 234.079 279.769 234.29C282.666 232.883 286.094 230.998 289.193 233.149C293.082 234.849 292.533 239.671 294.526 242.752C297.484 244.724 300.796 241.947 303.985 241.938C297.561 238.58 295.773 230.377 297.322 223.784Z" fill="#010102"/>
<path d="M311.828 217.139C317.018 215.599 322.979 215.714 327.715 218.528C332.719 221.307 334.339 228.678 330.912 233.28C329.486 235.173 327.113 235.908 325.031 236.801C327.572 243.499 331.496 251.092 338.883 253.253C343.151 254.412 346.5 250.2 350.643 250.598C352.954 250.658 352.777 253.544 352.972 255.189C349.138 261.082 340.813 262.109 334.827 259.162C328.822 256.092 324.953 250.065 322.524 243.968C321.559 241.535 320.78 239.046 319.957 236.57C319.575 236.625 318.796 236.721 318.416 236.774C318.505 238.243 318.603 239.721 318.708 241.199C319.648 241.622 320.586 242.048 321.533 242.48C321.293 243.568 321.037 244.667 320.763 245.754C319.046 248.756 316.44 251.17 313.411 252.816C312.544 251.992 311.454 251.363 310.886 250.292C311.605 248.276 313.198 246.577 313.268 244.345C313.393 240.505 312.852 236.673 312.922 232.833C313.019 230.55 311.391 228.78 310.186 227.036C312.063 224.506 315.26 224.948 318.032 225.01C318.307 225.488 318.59 225.966 318.882 226.452C318.5 228.479 318.333 230.53 318.262 232.592C320.787 232.583 323.868 232.911 325.514 230.53C328.1 227.645 325.7 223.169 322.361 222.169C317.224 220.424 309.811 221.7 307.757 227.382C308.617 230.594 311.787 232.903 311.575 236.399C310.212 236.911 308.768 238.107 307.272 237.293C303.083 235.133 301.656 229.681 303.011 225.408C304.071 221.244 307.835 218.288 311.828 217.139Z" fill="#F9FCFA"/>
<path d="M377.081 219.962C378.445 219.464 379.915 219.794 381.332 219.829C382.528 221.97 383.316 225.253 381.075 226.988C379.304 227.67 376.692 227.563 375.886 225.537C374.593 223.696 375.761 221.413 377.081 219.962Z" fill="#F4FAF9"/>
<path d="M350.255 225.439C351.398 223.006 353.948 221.714 356.294 220.679C359.484 227.944 357.649 236.164 359.093 243.784C359.882 244.713 360.793 245.545 361.67 246.412C361.696 246.89 361.741 247.854 361.767 248.332C358.677 249.792 355.179 249.412 351.874 249.181C351.848 248.643 351.803 247.553 351.778 247.013C352.407 246.049 353.044 245.084 353.53 244.042C353.406 238.803 352.689 233.589 352.786 228.344C351.938 227.395 349.733 227.138 350.255 225.439ZM362.416 223.882C364.248 222.307 366.119 220.625 368.561 220.121C370.457 224.342 370.111 229.085 370.564 233.598C370.9 237.58 369.731 242.331 372.964 245.412H376.188C376.612 244.907 377.455 243.907 377.87 243.412C377.896 240.739 377.896 238.067 377.773 235.402C376.984 235.207 375.408 234.828 374.62 234.634C375.364 231.439 378.215 229.563 381.049 228.393C382.981 232.889 382.067 237.906 382.998 242.614C383.945 243.596 384.901 244.578 385.866 245.56C385.831 245.994 385.77 246.844 385.742 247.268C382.882 247.801 379.976 248.038 377.072 248.074C376.168 247.392 375.265 246.737 374.37 246.065C372.201 250.065 366.923 248.843 363.3 248.056C364.07 245.923 365.85 244.038 365.559 241.63C365.382 237.799 365.116 233.968 364.93 230.136C364.797 229.216 364.682 228.305 364.584 227.392C362.708 227.067 362.477 225.457 362.416 223.882Z" fill="#F8FCF9"/>
<path d="M419.167 222.475C420.992 219.006 427.536 220.634 426.58 224.838C425.375 226.908 422.931 225.9 421.026 226.015C423.08 228.793 427.03 231.342 425.694 235.333C424.109 239.048 419.468 239.35 416.084 240.465C415.907 240.846 415.552 241.607 415.375 241.995C419.033 243.871 423.08 240.933 426.756 242.721C428.546 243.34 429.21 245.26 429.952 246.827C428.694 252.95 421.814 255.331 416.251 254.906C413.887 254.49 410.761 254.154 409.53 251.809C408.422 249.667 410.451 247.039 412.744 247.455C414.746 248.853 416.473 250.642 418.687 251.739C420.715 250.97 424.381 250.633 423.717 247.605C422.62 246.083 420.573 246.278 418.944 246.411C416.49 246.606 414.028 246.606 411.566 246.552C410.929 245.915 410.299 245.278 409.67 244.65C409.661 243.836 409.661 243.03 409.661 242.235C410.635 241.336 411.621 240.451 412.619 239.58C411.494 238.297 409.777 237.306 409.475 235.508C408.83 233.508 409.972 231.651 410.723 229.889C413.425 228.42 416.383 227.597 419.42 227.181C418.989 225.669 417.74 223.819 419.167 222.475Z" fill="#F6FAF7"/>
<path d="M395.493 229.792C397.636 228.447 400.469 226.642 402.94 228.305C405.616 230.119 405.244 233.65 405.509 236.455C405.393 238.845 407.97 240.014 408.139 242.331C405.916 244.694 403.702 248.686 399.841 247.26C400.54 242.623 401.798 237.57 399.601 233.146C398.246 233.493 396.918 233.854 395.571 234.199C395.218 236.064 394.553 237.933 394.817 239.86C395.048 242.436 397.448 243.904 398.626 246.037C395.545 247.541 392.109 247.55 388.768 247.364L387.379 245.657C388.229 244.772 389.089 243.904 389.991 243.072C390.231 242.347 390.488 241.639 390.735 240.921C390.347 239.009 390.168 237.071 390.061 235.133L387.423 234.638C387.441 233.275 387.777 231.973 388.273 230.726C389.788 229.709 391.292 228.673 392.842 227.689C393.799 228.771 394.453 230.034 395.092 231.335C395.192 230.952 395.396 230.182 395.493 229.792Z" fill="#F8FBF9"/>
<path d="M414.277 233.439C414.95 230.926 417.874 231.095 419.909 231.421C420.569 232.421 421.099 233.501 421.485 234.635C420.059 235.493 418.536 236.148 417.003 236.777C415.933 235.899 413.418 235.368 414.277 233.439Z" fill="#030207"/>
<path d="M336.9 232.305C340.789 230.396 346.103 231.697 348.138 235.659C349.971 239.652 350.069 244.977 346.748 248.225C344.313 250.915 340.15 250.614 336.945 249.835C330.197 246.881 330.107 235.28 336.9 232.305Z" fill="#F8FBF6"/>
<path d="M318.417 236.775C318.799 236.72 319.578 236.624 319.958 236.571C320.782 239.049 321.562 241.536 322.525 243.969C321.932 244.562 321.339 245.155 320.764 245.757C321.039 244.669 321.295 243.571 321.534 242.482C320.587 242.051 319.647 241.624 318.709 241.201C318.604 239.722 318.506 238.244 318.417 236.775Z" fill="#152028"/>
<path d="M337.989 236.907C339.885 234.785 343.835 236.155 344.17 238.934C344.453 241.226 344.896 244.385 342.399 245.677C340.654 245.917 338.308 246.128 337.492 244.155C336.422 241.969 336.21 238.756 337.989 236.907Z" fill="#020103"/>
<path d="M282.505 240.226C283.78 238.803 285.358 237.89 287.315 238.279C287.305 239.89 287.555 241.801 285.987 242.81C284.596 243.146 283.169 243.173 281.761 243.298C281.964 246.677 281.921 250.066 282.213 253.439C282.816 254.192 283.426 254.953 284.038 255.722C282.363 257.988 280.646 260.97 277.361 260.713C277.945 257.119 279.921 253.077 277.485 249.74C276.051 251.979 272.278 251.652 270.862 249.574C268.834 247.264 269.258 243.194 271.863 241.468C274.942 239.234 278.989 240.606 282.505 240.226Z" fill="#F2FAF9"/>
<path d="M272.843 247.198C273.216 245.767 272.976 243.845 274.668 243.235C275.811 242.995 276.972 242.881 278.149 242.881C278.229 244.606 278.344 246.341 278.503 248.084C276.723 247.217 274.747 247.332 272.843 247.198Z" fill="#030408"/>
<path d="M285.986 242.809C286.632 243.049 287.925 243.519 288.581 243.749C288.909 245.589 288.928 247.474 289.069 249.35C291.062 248.34 293.109 247.978 295.073 249.271C295.276 250.979 295.455 252.685 295.587 254.403C296.126 255.162 296.675 255.933 297.226 256.711C296.237 257.875 295.209 259.005 294.145 260.1L291.603 259.605C292.533 257.03 293.249 254.03 291.523 251.596C290.699 251.888 289.919 252.285 289.142 252.676C289.16 253.906 289.212 255.154 289.301 256.392C289.93 257.419 290.585 258.437 291.275 259.435C289.168 259.727 287.043 259.913 284.917 259.958C284.871 259.621 284.784 258.941 284.739 258.594C285.288 257.755 285.838 256.93 286.36 256.092C285.714 253.375 285.757 250.57 285.75 247.8C282.594 247.066 285.393 244.518 285.986 242.809Z" fill="#F2F9F8"/>
<path d="M300.705 248.19C303.416 247.652 307.135 247.889 307.771 251.243C308.834 255.066 303.733 254.588 301.342 254.694C301.466 255.082 301.723 255.861 301.855 256.252C303.902 256.208 305.786 255.305 307.807 255.075C308.489 259.907 300.103 260.641 298.791 256.349C297.189 253.464 298.465 250.27 300.705 248.19Z" fill="#F1FBF9"/>
<path d="M300.173 251.349C301.838 250.845 303.52 250.385 305.23 250.003C305.541 253.128 301.661 253.447 300.173 251.349Z" fill="#61A6C3"/>
<path d="M318.922 256.349C320.773 256.623 322.446 254.252 324.19 255.595C326.565 257.586 328.008 260.763 327.893 263.871C327.114 264.516 326.218 264.977 325.343 265.464C323.11 263.604 320.869 261.659 318.09 260.703C317.007 261.089 315.927 261.481 314.849 261.88C314.707 263.207 313.228 264.986 315.026 265.78C319.63 268.446 325.255 269.039 329.471 272.499C331.968 275.835 332.837 279.994 332.438 284.098C329.781 294.301 315.479 297.071 308.11 290.311C303.505 286.515 303.461 277.781 309.005 274.814C311.909 273.02 316.152 273.045 318.358 275.921C317.95 276.887 317.553 277.859 317.154 278.832C315.18 279.506 312.761 279.611 311.397 281.381C310.715 283.876 311.725 286.851 314.24 287.878C317.57 289.345 322.086 289.008 324.717 286.329C327.692 282.94 326.799 277.002 322.769 274.834C318.81 272.737 314.196 272.011 310.46 269.463C307.527 267.436 307.023 263.082 309.141 260.297C311.191 257.039 315.256 255.854 318.922 256.349Z" fill="#F8FCF9"/>
<path d="M411.55 260.791C413.967 258.634 417.599 260.791 420.069 258.738C420.521 258.738 421.433 258.729 421.885 258.729C423.089 260.625 424.019 262.685 424.773 264.818C422.205 267.127 419.591 264.765 417.325 263.34C416.917 263.395 416.086 263.481 415.678 263.535C415.669 264.225 415.66 264.924 415.669 265.632C418.582 266.959 422.144 267.295 424.454 269.704C426.217 271.58 424.959 274.129 424.445 276.27C422.116 278.27 419.14 278.819 416.157 278.287C415.085 278.81 413.952 279.835 412.684 279.297C410.576 277.527 409.213 274.916 409.302 272.138C412.517 270.447 414.997 273.58 417.857 274.553C419.965 275.402 419.496 272.792 419.744 271.659C416.74 270.694 413.695 269.799 410.878 268.358L409.604 266.307C409.567 264.304 409.964 262.163 411.55 260.791Z" fill="#F7FAF9"/>
<path d="M376.452 263.773C378.906 262.322 381.926 260.747 384.734 262.322C390.144 265.364 390.8 273.569 387.31 278.311C385.584 281.027 381.499 281.833 378.923 279.878C377.409 279.099 377.284 276.62 378.64 275.639C379.907 275.453 381.2 275.374 382.501 275.391C384.564 273.409 385.096 270.648 383.749 268.091L381.766 266.71C379.87 266.728 377.463 267.197 377.027 269.4C376.699 272.356 376.921 275.347 377.037 278.319C376.991 280.028 378.737 280.869 379.525 282.205C379.933 283.593 378.595 284.541 377.896 285.541C376.185 287.18 374.363 289.585 371.678 288.87C370.597 286.437 372.12 283.906 372.05 281.419C371.89 277.427 371.367 273.464 371.475 269.473C370.615 269.055 369.758 268.648 368.914 268.241C368.835 267.746 368.674 266.755 368.604 266.259C370.34 264.385 372.236 262.277 374.963 262.066C375.336 262.49 376.08 263.348 376.452 263.773Z" fill="#F8FCF9"/>
<path d="M394.112 262.809C397.744 259.144 404.961 259.843 407.236 264.702C408.132 266.587 408.69 269.853 406.315 270.853C403.376 272.383 400.019 271.932 396.849 271.959C396.929 272.41 397.106 273.33 397.195 273.782C400.693 276.366 403.962 272.702 407.62 272.826C407.691 273.932 407.921 275.057 407.78 276.18C406.47 278.518 403.618 279.074 401.297 279.905C396.896 279.967 392.46 277.146 391.768 272.605C390.747 269.214 391.668 265.374 394.112 262.809Z" fill="#F8FBF9"/>
<path d="M352.275 266.11C354.507 262.721 359.148 262.517 362.681 263.545C367.074 265.165 367.933 270.412 367.799 274.516C367.029 276.915 366.037 279.623 363.593 280.801C361.228 282.182 358.429 281.651 355.834 281.746C350.175 278.959 348.395 271.048 352.275 266.11Z" fill="#F9FDF8"/>
<path d="M336.882 265.746C338.522 264.295 340.744 263.942 342.771 263.358C344.64 264.011 346.783 264.385 348.218 265.863C349.289 267.305 349.006 269.542 347.322 270.418C344.905 269.445 342.513 268.146 339.821 268.56C338.307 271.241 337.633 275.232 340.45 277.319C343.46 278.797 346.295 275.761 349.403 276.239C349.464 277.814 350.209 279.965 348.472 280.947C346.117 283.195 342.6 283.325 339.59 282.707C332.925 280.295 331.533 270.154 336.882 265.746Z" fill="#F7FCF8"/>
<path d="M397.504 265.225C399.763 264.712 403.075 264.165 403.242 267.419C400.861 268.101 398.397 268.435 395.926 268.561C396.433 267.437 396.963 266.331 397.504 265.225Z" fill="#03080A"/>
<path d="M356.756 267.756C358.261 267.065 359.926 267.561 361.495 267.765C362.656 269.995 363.577 272.578 362.558 275.065C361.637 278.136 356.605 278.206 355.561 275.145C355.197 272.685 354.667 269.613 356.756 267.756Z" fill="#040304"/>
<path d="M514.654 293.489C520.915 292.055 525.459 287.162 530.294 283.427C539.061 284.339 547.396 288.48 553.532 294.781C558.9 300.763 562.601 308.603 562.256 316.771C562.76 327.62 557.023 338.054 548.671 344.716C534.555 356.299 512.235 356.538 498.305 344.513C490.059 337.637 485.374 326.575 486.721 315.878C487.404 309.374 490.149 303.224 494.108 298.056C500.989 296.701 507.8 294.983 514.654 293.489Z" fill="white"/>
<path d="M109.189 300.975C111.766 303.55 114.29 306.178 116.912 308.709C118.816 310.337 119.117 312.966 119.993 315.185C132.623 350.864 154.426 383.234 182.776 408.348C208.034 430.825 238.384 447.62 270.975 456.753C308.11 467.256 347.98 467.964 385.442 458.653C438.544 445.813 486.236 412.543 517.012 367.499C519.615 367.198 522.229 366.915 524.857 366.8C493.55 414.825 443.762 450.574 388.019 464.301C374.62 467.794 360.875 469.876 347.078 470.786C328.178 472.044 309.137 470.918 290.503 467.548C253.804 460.936 218.857 445.063 189.568 422.029C150.759 391.634 121.941 348.619 109.189 300.975Z" fill="#FAFCFA"/>
<path d="M461.065 304.196C462.191 304.065 463.359 303.647 464.511 303.93C471.393 309.523 476.307 317.593 477.406 326.46C480.143 343.787 467.699 361.122 451.219 366.033C440.094 369.644 427.316 368.157 417.6 361.538C409.983 356.591 404.341 348.637 402.526 339.707C400.408 330.754 402.499 321.02 407.503 313.372C408.113 312.054 409.707 312.222 410.904 311.992C427.687 309.805 444.389 307.063 461.065 304.196ZM229.217 332.69C232.849 321.407 241.731 311.567 253.155 307.921C254.723 312.78 258.558 316.682 263.455 318.213C274.224 321.868 285.799 320.4 296.967 320.728C302.457 328.823 305.32 339.019 303.256 348.726C300.351 365.947 284.038 379.503 266.618 379.486C253.944 380.105 241.236 373.76 234.115 363.265C227.995 354.458 226.331 342.981 229.217 332.69ZM325.148 319.974C343.756 319.133 362.363 317.797 380.863 315.549C387.415 322.195 391.622 331.327 391.242 340.76C391.146 351.857 385.034 362.432 376.019 368.75C367.536 374.803 356.474 377.192 346.261 374.944C333.022 372.334 321.747 361.812 318.621 348.627C317.797 342.725 317.717 336.601 319.498 330.858C320.827 326.965 322.934 323.414 325.148 319.974Z" fill="white"/>
<path d="M209.752 327.39C211.124 326.701 212.515 326.038 213.913 325.363C210.769 332.975 209.883 341.267 210.301 349.424C204.878 343.15 199.816 336.573 195.139 329.726C200.125 329.929 205.092 329.23 209.752 327.39Z" fill="#FAFCFB"/>
<path d="M169.924 356.627C177.107 352.158 183.855 346.999 191.091 342.601C192.8 345.105 194.483 347.627 196.032 350.238C189.505 354.485 183.12 358.928 176.593 363.158C173.512 365.034 170.101 366.989 166.346 366.531C159.678 366.31 154.346 359.443 155.373 352.946C156.108 348.955 158.951 345.45 162.653 343.796C164.088 346.07 165.744 348.194 167.126 350.503C165.833 352.406 163.123 354.149 164.309 356.788C165.736 358.804 168.242 357.583 169.924 356.627Z" fill="#FBFDFB"/>
<path d="M189.967 364.158C192.783 361.528 195.989 358.37 200.196 358.849C206.598 359.715 211.824 365.353 212.833 371.644C213.161 375.494 210.797 378.89 207.918 381.202C201.551 386.847 195.661 393.033 189.072 398.431C187.426 396.749 185.761 395.094 184.121 393.413C187.15 389.378 191.242 386.254 194.979 382.901C193.137 380.633 191.18 378.476 189.187 376.359C185.202 379.387 181.82 383.113 178.012 386.341C176.285 384.801 174.655 383.164 173.034 381.518C172.999 381.202 172.928 380.545 172.884 380.218C178.444 374.723 184.413 369.651 189.967 364.158Z" fill="#FCFDFB"/>
<path d="M343.542 389.119C363.787 391.721 385.026 380.562 394.077 362.22C399.878 370.06 408.247 375.882 417.546 378.803C417.52 378.989 417.449 379.369 417.414 379.555C386.142 398.811 348.325 407.235 311.864 402.572C298.057 400.837 284.41 397.423 271.542 392.094C286.492 389.112 299.626 378.891 306.56 365.37C314.22 378.538 328.39 387.59 343.542 389.119Z" fill="white"/>
<path d="M198.274 367.502C201.648 367.281 205.535 370.433 204.181 374.033C202.994 375.442 201.533 376.592 200.142 377.794C198.078 375.803 196.077 373.751 194.19 371.59C195.545 370.221 196.906 368.859 198.274 367.502Z" fill="#020304"/>
<path d="M221.38 375.166C223.469 376.548 225.454 378.086 227.473 379.581C224.816 385.784 222.301 392.058 219.423 398.164C219.325 398.738 219.112 399.879 219.006 400.447C224.657 395.518 230.581 390.925 236.373 386.163C238.286 387.747 240.261 389.251 242.28 390.704C232.22 399.191 221.857 407.321 211.717 415.728C209.804 414.277 207.873 412.861 205.925 411.463C210.991 399.324 216.295 387.298 221.38 375.166Z" fill="#FBFDFB"/>
<path d="M406.236 401.103C413.302 397.155 420.166 392.863 427.067 388.644C428.492 390.856 429.855 393.112 431.079 395.456C428.838 396.818 426.49 398.005 424.356 399.528C424.551 400.687 425.18 401.696 425.774 402.705C430.256 410.147 434.877 417.518 439.209 425.066C439.411 425.208 439.829 425.491 440.033 425.634C437.78 426.944 435.571 428.328 433.409 429.783C427.486 421.467 422.888 412.281 417.265 403.76C414.865 405.156 412.518 406.644 410.039 407.901C408.769 405.624 407.485 403.368 406.236 401.103Z" fill="#FBFDF9"/>
<path d="M247.602 397.165C254.758 395.058 263.535 399.587 265.315 406.987C266.033 410.898 263.66 414.332 262.02 417.668C258.663 424.471 255.095 431.152 251.641 437.906C249.32 436.888 247.08 435.711 244.866 434.497C247.09 429.984 249.4 425.524 251.65 421.029C249.028 419.701 246.513 418.099 243.698 417.206C241.616 421.577 239.172 425.774 237.161 430.188C234.744 429.515 232.511 428.358 230.263 427.294C230.43 425.259 231.334 423.418 232.29 421.657C235.355 415.578 238.605 409.596 241.589 403.472C242.802 400.765 244.628 398.094 247.602 397.165Z" fill="#FBFDFA"/>
<path d="M249.586 405.749C250.091 405.552 251.083 405.174 251.579 404.979C253.944 405.475 257.415 406.528 257.371 409.499C256.796 411.384 255.733 413.074 254.812 414.809C252.19 413.525 249.569 412.244 247.008 410.837C247.831 409.123 248.691 407.426 249.586 405.749Z" fill="#020304"/>
<path d="M379.1 410.73C385.354 409.005 391.553 404.047 398.257 406.536C404.704 408.385 408.371 416.5 405.297 422.508C403.349 426.428 399.461 428.8 395.459 430.198C397.123 434.623 398.947 438.992 400.436 443.489C398.276 444.436 396.078 445.278 393.944 446.259C393.412 446.278 392.881 446.295 392.359 446.321C388.816 437.304 385.441 428.225 381.944 419.19C380.871 416.411 379.525 413.703 379.1 410.73Z" fill="#FCFEFC"/>
<path d="M276.97 408.615C281.177 407.368 285.852 408.263 289.494 410.651C293.408 413.703 294.169 419.314 292.753 423.836C290.442 423.243 288.148 422.597 285.899 421.836C285.659 419.94 286.066 417.27 283.977 416.27C282.71 415.349 281.108 415.633 279.664 415.535C279.221 416.606 278.787 417.694 278.361 418.783C282.338 422.314 287.731 424.729 289.759 430.03C292.009 436.853 287.121 444.843 280.079 446.188C279.042 446.164 278.025 446.153 277.005 446.153C273.366 445.243 269.292 443.959 267.325 440.472C265.226 437.093 265.846 432.925 266.404 429.2C268.999 429.757 271.602 430.341 274.1 431.28C274.276 433.784 273.984 436.5 275.871 438.483C276.791 438.483 278.624 438.493 279.537 438.493C280.734 436.828 282.213 434.954 281.929 432.786C279.121 428.981 274.073 427.476 271.673 423.298C269.504 418.1 271.63 410.987 276.97 408.615Z" fill="#FAFCF9"/>
<path d="M364.638 413.146C367.445 412.553 370.253 411.944 373.095 411.544C375.672 423.986 377.851 436.508 380.491 448.941C378.181 449.489 375.86 449.985 373.513 450.357C373.229 450.534 372.653 450.889 372.37 451.075C371.218 447.959 370.794 444.659 370.121 441.437C368.295 432.004 366.428 422.588 364.638 413.146Z" fill="#FBFEFA"/>
<path d="M389.816 415.704C392.111 414.757 394.547 414.074 397.052 414.607C398.034 416.368 398.779 418.448 397.884 420.419C396.388 421.879 394.307 422.456 392.34 422.978C391.481 420.553 390.561 418.155 389.816 415.704Z" fill="#020204"/>
<path d="M303.122 419.88C307.233 413.465 317.647 412.58 322.882 418.128C324.477 419.668 325.212 421.809 326.113 423.784C326.104 425.793 326.096 427.811 326.06 429.837C323.429 429.933 320.799 429.687 318.186 429.421C318.16 428.067 318.125 426.712 318.132 425.377C316.405 423.501 313.748 422.411 311.304 423.537C309.134 425.076 309.514 427.988 309.019 430.289C308.638 434.049 307.717 437.757 307.752 441.571C308.079 442.058 308.753 443.031 309.081 443.518C311.099 444.704 313.349 444.438 315.395 443.456C315.962 442.111 316.528 440.775 317.086 439.439C319.682 439.722 322.268 440.129 324.871 440.414C324.862 444.298 323.561 448.695 319.903 450.65C314.208 453.73 306.009 453.252 301.898 447.774C298.587 444.139 299.383 438.89 300.217 434.475C301.271 429.632 301.218 424.491 303.122 419.88Z" fill="#FCFEFD"/>
<path d="M332.242 416.261C337.209 415.562 342.231 415.208 347.252 415.208C349.813 415.119 352.123 416.34 354.328 417.508C357.951 421.944 358.615 428.474 355.878 433.518C354.993 435.277 353.381 436.534 352.451 438.26C354.55 443.181 357.756 447.562 360.2 452.338C357.357 452.383 354.533 452.65 351.707 452.835C348.536 448.084 346.011 442.916 342.496 438.41C342.542 443.473 343.417 448.48 343.524 453.551C340.84 453.781 338.175 454.152 335.482 454.241C335.146 451.531 335.058 448.799 334.738 446.091C334.206 439.595 333.613 433.099 333.028 426.604C332.632 423.163 332.472 419.712 332.242 416.261Z" fill="#FDFEFC"/>
<path d="M341.257 423.172C344.004 422.342 346.819 422.827 349.184 424.411C349.502 425.471 349.838 426.552 350.176 427.623C349.502 428.889 348.979 430.409 347.634 431.136C345.827 431.667 343.966 431.968 342.108 432.269C341.496 429.268 341.284 426.225 341.257 423.172Z" fill="#010204"/>
</g>
<defs>
<clipPath id="clip0_792_5909">
<rect width="573" height="482.275" fill="white"/>
</clipPath>
</defs>
</svg>
