<svg width="96" height="96" viewBox="0 0 96 96" fill="none" xmlns="http://www.w3.org/2000/svg">
<circle opacity="0.12" cx="48" cy="48" r="48" fill="#27AE60"/>
<path d="M39.6564 48.9637C39.2452 48.6264 38.7094 48.4433 38.1565 48.4513C37.6036 48.4593 37.0744 48.6577 36.6751 49.0068C36.2758 49.3559 36.036 49.8298 36.0037 50.3335C35.9715 50.8371 36.1491 51.3333 36.5011 51.7224L41.3656 56.3803C41.5692 56.5752 41.814 56.7305 42.0851 56.837C42.3562 56.9435 42.6481 56.9989 42.9432 57C43.2368 57.0015 43.5278 56.9492 43.7988 56.8462C44.0698 56.7432 44.3154 56.5915 44.5209 56.4002L59.3773 42.4068C59.5787 42.2178 59.7374 41.9944 59.8442 41.7495C59.951 41.5045 60.0039 41.2428 59.9998 40.9792C59.9957 40.7156 59.9348 40.4553 59.8204 40.2132C59.7061 39.9711 59.5406 39.7519 59.3335 39.5681C59.1263 39.3844 58.8814 39.2396 58.613 39.1422C58.3445 39.0447 58.0576 38.9965 57.7686 39.0002C57.4797 39.0039 57.1944 39.0595 56.929 39.1638C56.6636 39.2681 56.4234 39.4191 56.2219 39.6081L42.9652 52.1222L39.6564 48.9637Z" fill="#27AE60"/>
</svg>
