<svg width="96" height="96" viewBox="0 0 96 96" fill="none" xmlns="http://www.w3.org/2000/svg">
<circle cx="48" cy="48" r="48" fill="#E3DAF9"/>
<path d="M46.2 42.6H49.8V39H46.2V42.6ZM48 62.4C40.062 62.4 33.6 55.938 33.6 48C33.6 40.062 40.062 33.6 48 33.6C55.938 33.6 62.4 40.062 62.4 48C62.4 55.938 55.938 62.4 48 62.4ZM48 30C45.6362 30 43.2956 30.4656 41.1117 31.3702C38.9278 32.2748 36.9435 33.6006 35.2721 35.2721C31.8964 38.6477 30 43.2261 30 48C30 52.7739 31.8964 57.3523 35.2721 60.7279C36.9435 62.3994 38.9278 63.7253 41.1117 64.6298C43.2956 65.5344 45.6362 66 48 66C52.7739 66 57.3523 64.1036 60.7279 60.7279C64.1036 57.3523 66 52.7739 66 48C66 45.6362 65.5344 43.2956 64.6298 41.1117C63.7252 38.9278 62.3994 36.9435 60.7279 35.2721C59.0565 33.6006 57.0722 32.2748 54.8883 31.3702C52.7044 30.4656 50.3638 30 48 30ZM46.2 57H49.8V46.2H46.2V57Z" fill="#6E41E2"/>
</svg>
