<svg width="24" height="24" viewBox="0 0 24 24" fill="none" xmlns="http://www.w3.org/2000/svg">
<path fill-rule="evenodd" clip-rule="evenodd" d="M19.3602 4.94054C19.034 4.61586 18.6136 4.40256 18.159 4.33111C17.7044 4.25966 17.2389 4.33372 16.8289 4.54271C16.8056 4.50962 16.5888 4.27022 16.5036 4.18432C16.0976 3.77925 15.5474 3.55176 14.9739 3.55176C14.4004 3.55176 13.8502 3.77925 13.4442 4.18432L9.59272 8.03581C9.46072 8.16785 9.38657 8.34691 9.38657 8.53362C9.38657 8.72032 9.46072 8.89938 9.59272 9.03143C9.72583 9.16139 9.90449 9.23415 10.0905 9.23415C10.2766 9.23415 10.4552 9.16139 10.5883 9.03143L14.4398 5.17993C14.5815 5.03834 14.7736 4.95881 14.9739 4.95881C15.1742 4.95881 15.3663 5.03834 15.508 5.17993L15.7657 5.43834L14.199 7.00429C14.1307 7.07291 14.0923 7.16583 14.0923 7.2627C14.0923 7.35956 14.1307 7.45248 14.199 7.52111L16.7803 10.0989C16.8487 10.1671 16.9414 10.2055 17.038 10.2055C17.1346 10.2055 17.2273 10.1671 17.2957 10.0989L19.3602 8.0344C19.7701 7.62395 20.0003 7.06757 20.0003 6.48747C20.0003 5.90737 19.7701 5.35099 19.3602 4.94054ZM13.4246 8.29486C13.3561 8.22654 13.2632 8.18817 13.1665 8.18817C13.0697 8.18817 12.9769 8.22654 12.9084 8.29486L7.11571 14.089C7.01386 14.1906 6.93306 14.3114 6.87793 14.4443C6.82279 14.5772 6.79442 14.7196 6.79442 14.8635C6.79442 15.0074 6.82279 15.1499 6.87793 15.2828C6.93306 15.4157 7.01386 15.5364 7.11571 15.638L8.66476 17.1871C8.76639 17.2889 8.88712 17.3697 9.02002 17.4249C9.15292 17.48 9.2954 17.5084 9.43928 17.5084C9.58317 17.5084 9.72564 17.48 9.85854 17.4249C9.99145 17.3697 10.1122 17.2889 10.2138 17.1871L16.0072 11.3937C16.0756 11.3252 16.1139 11.2323 16.1139 11.1356C16.1139 11.0388 16.0756 10.946 16.0072 10.8775L13.4246 8.29486ZM5.81798 15.9672C5.87488 15.9838 5.92667 16.0145 5.96854 16.0564L8.39139 18.48C8.43334 18.5218 8.46404 18.5736 8.48064 18.6305C8.49724 18.6874 8.49921 18.7476 8.48635 18.8055C8.4735 18.8633 8.44625 18.917 8.40713 18.9615C8.368 19.006 8.31827 19.04 8.26254 19.0601L4.47019 20.4289C4.40704 20.4507 4.33908 20.4545 4.27392 20.4398C4.20875 20.4251 4.14896 20.3926 4.10123 20.3459C4.05397 20.2986 4.02113 20.2389 4.00654 20.1737C3.99195 20.1085 3.99622 20.0405 4.01885 19.9776L5.38835 16.1853C5.40853 16.1295 5.44246 16.0798 5.48698 16.0407C5.5315 16.0015 5.58518 15.9743 5.64305 15.9614C5.70091 15.9486 5.76108 15.9506 5.81798 15.9672Z" fill="black"/>
</svg>
